<svg version="1.1" id="Layer_1" xmlns="http://www.w3.org/2000/svg" x="0" y="0" viewBox="0 0 27 20" xml:space="preserve"><path d="M22.1 14.9H9.5c-.5 0-.9-.3-1-.8L5.7 2H0V0h6.4c.5 0 .9.3 1 .8L10.3 13h11.1l2.9-11h-8.9V0h10.2c.3 0 .6.1.8.4.2.2.3.6.2.9l-3.5 13c-.2.3-.6.6-1 .6zM11 20c-.8 0-1.5-.7-1.5-1.5S10.1 17 11 17s1.5.7 1.5 1.5S11.8 20 11 20zm0-2c-.3 0-.5.2-.5.5s.2.5.5.5.5-.2.5-.5-.3-.5-.5-.5zm9.4 2c-.8 0-1.5-.7-1.5-1.5s.7-1.5 1.5-1.5 1.5.7 1.5 1.5-.7 1.5-1.5 1.5zm0-2c-.3 0-.5.2-.5.5s.2.5.5.5.5-.2.5-.5-.2-.5-.5-.5z" fill="#070404"/></svg>