<svg viewBox="0 0 864 504" fill="none" xmlns="http://www.w3.org/2000/svg"><mask id="mask0" maskUnits="userSpaceOnUse" x="-4" y="-1" width="873" height="505"><path fill="#fff" d="M0 0h864v504H0z"/><path d="M410.6 254.5v51.7H-4v-51.7h414.6zM203.3 224c-51 0-90.3-8.6-117.9-25.9C57.8 180.9 44 156.7 44 125.7c0-31 13.8-55.1 41.4-72.4 27.6-17.2 66.9-25.9 117.9-25.9s90.3 8.6 117.9 25.9c27.6 17.2 41.4 41.4 41.4 72.4 0 31-13.8 55.2-41.4 72.4-27.6 17.3-66.9 25.9-117.9 25.9zm166.5 191.3V468H53.9V333.6h61v81.7h254.9zm-166.5-242c31.7 0 56-4.1 72.9-12.4 16.9-8.3 25.3-20 25.3-35.2 0-15.2-8.4-26.9-25.3-35.2-16.9-8.3-41.2-12.4-72.9-12.4-31.7 0-56 4.1-72.9 12.4-16.9 8.3-25.3 20-25.3 35.2 0 15.2 8.4 26.9 25.3 35.2 16.9 8.3 41.2 12.4 72.9 12.4zm502.2-63.6v52.7H441.3v-52.7h264.2zm-17.1 171.2c0 16.2-2.8 30.5-8.3 42.9-5.5 12.4-13.3 23-23.3 31.8s-21.9 15.4-35.7 19.9c-13.8 4.5-29 6.7-45.5 6.7s-31.7-2.2-45.5-6.7-25.7-11.1-35.7-19.9c-10-8.8-17.8-19.4-23.3-31.8-5.5-12.4-8.3-26.7-8.3-42.9 0-15.9 2.8-30.1 8.3-42.7 5.5-12.6 13.3-23.3 23.3-32.1s21.9-15.4 35.7-19.9c13.8-4.5 29-6.7 45.5-6.7s31.7 2.2 45.5 6.7 25.7 11.1 35.7 19.9c10 8.8 17.7 19.5 23.3 32.1 5.6 12.6 8.3 26.8 8.3 42.7zM646 32.7v52.7H502.8V32.7H646zm-16.5 248.2c0-17.2-5.2-30-15.5-38.3-10.3-8.3-23.1-12.4-38.3-12.4-15.2 0-27.9 4.1-38.3 12.4-10.3 8.3-15.5 21-15.5 38.3 0 17.2 5.2 30 15.5 38.3 10.3 8.3 23.1 12.4 38.3 12.4 15.2 0 27.9-4.1 38.3-12.4 10.3-8.3 15.5-21.1 15.5-38.3zm238.9-76.5v54.8h-66.7v217.2h-61V27h61v177.3h66.7v.1z" fill="#000"/></mask><g mask="url(#mask0)"><path fill="#fff" d="M0 0h864v504H0z"/></g></svg>