<svg version="1.1" xmlns="http://www.w3.org/2000/svg" id="logo" width="136" height="24"><path fill="#1428a0" d="M109.226 15.767h-.102L104.784.673h-7v19.029h4.637l-.26-15.616h.101l4.66 15.616h6.716V.672h-4.668l.256 15.095zM20.169.672l-3.492 19.23h5.096l2.582-17.455h.107l2.514 17.456h5.066L28.566.672h-8.397zm28.504.001l-2.33 14.704h-.105L43.92.673h-7.693l-.418 19.23h4.717l.118-17.293h.107l3.15 17.292h4.784l3.151-17.287.105-.005.123 17.292h4.718L56.366.673h-7.693zM4.99 5.62a2.502 2.502 0 0 1-.02-1.004c.136-.618.544-1.295 1.725-1.295 1.107 0 1.75.699 1.75 1.741V6.25h4.71V4.907c0-4.195-3.69-4.85-6.362-4.85C3.442.057.704 1.193.2 4.33a6.71 6.71 0 0 0 .045 2.59c.82 3.93 7.52 5.069 8.493 7.554.182.464.123 1.065.033 1.428-.152.629-.576 1.283-1.835 1.283-1.178 0-1.897-.688-1.897-1.737l-.003-1.866H-.021l-.003 1.487c0 4.29 3.31 5.579 6.856 5.579 3.417 0 6.218-1.178 6.671-4.388.23-1.665.06-2.757-.02-3.164-.8-4.028-7.954-5.22-8.492-7.476zm61.369.044a2.424 2.424 0 0 1-.023-.985c.132-.615.537-1.284 1.707-1.284 1.093 0 1.736.688 1.736 1.717v1.18h4.659V4.96c0-4.144-3.657-4.797-6.294-4.797-3.324 0-6.038 1.11-6.531 4.228-.138.839-.16 1.606.043 2.565.812 3.89 7.446 5.02 8.41 7.478.177.463.124 1.054.037 1.414-.153.634-.577 1.269-1.819 1.269-1.172 0-1.878-.678-1.878-1.716l-.003-1.852H61.39v1.474c0 4.245 3.282 5.52 6.792 5.52 3.375 0 6.153-1.168 6.598-4.344.228-1.643.06-2.726-.02-3.131-.791-3.986-7.877-5.17-8.401-7.406zm21.391 9.23a3.9 3.9 0 0 1-.044.734c-.094.478-.497 1.383-1.809 1.383-1.307 0-1.715-.905-1.809-1.383a4.042 4.042 0 0 1-.047-.733V.67h-4.767v13.783c-.008.356.027 1.078.044 1.27.323 3.585 3.11 4.743 6.578 4.743 3.465 0 6.25-1.158 6.585-4.743.017-.192.053-.915.047-1.27V.67H87.75v14.224zm37.533-5.802v2.816h1.931v2.789c.006.242-.004.51-.044.73-.084.518-.565 1.391-1.926 1.391-1.364 0-1.843-.874-1.931-1.39a4.12 4.12 0 0 1-.042-.731V5.898c0-.313.02-.655.076-.903.1-.474.507-1.396 1.878-1.396 1.443 0 1.8.974 1.886 1.396.055.267.059.727.059.725v1.083h4.754V6.16c-.002 0 .017-.658-.038-1.258-.35-3.616-3.28-4.755-6.621-4.755-3.342 0-6.204 1.148-6.62 4.755-.04.311-.082.916-.082 1.258l-.001 8.09c.001.363.013.63.065 1.27.31 3.502 3.296 4.757 6.634 4.757 3.34 0 6.325-1.255 6.638-4.756.051-.642.059-.91.06-1.27V9.09h-6.676z" id="svg_1"/></svg>